<?xml version="1.0" encoding="UTF-8"?>
<svg width="64px" height="25px" viewBox="0 0 64 25" version="1.1" xmlns="http://www.w3.org/2000/svg" xmlns:xlink="http://www.w3.org/1999/xlink">
    <!-- Generator: sketchtool 51.3 (57544) - http://www.bohemiancoding.com/sketch -->
    <title>D354A3C0-79DB-411A-8B37-A813D74E38D7</title>
    <desc>Created with sketchtool.</desc>
    <defs></defs>
    <g id="Page-1" stroke="none" stroke-width="1" fill="none" fill-rule="evenodd">
        <g id="DINK-kit-Main-1440" transform="translate(-40.000000, -72.000000)">
            <g id="Header" transform="translate(-55.000000, -82.000000)">
                <g id="Main-menu-section" transform="translate(55.000000, 122.000000)">
                    <g id="Dink-logo" transform="translate(40.000000, 32.000000)">
                        <path d="M0,3.30188679 L0,25 L9.1285486,25 C16.1146827,25 20.8963034,20.5673854 20.8963034,14.1509434 C20.8963034,7.70350404 16.1767817,3.30188679 9.345895,3.30188679 L0,3.30188679 Z M5.52680834,7.70350404 L9.22169706,7.70350404 C12.7302889,7.70350404 15.2763466,10.3382749 15.2763466,14.1819407 C15.2763466,17.9946092 12.8544868,20.5983827 9.47009294,20.5983827 L5.52680834,20.5983827 L5.52680834,7.70350404 Z M26.5703465,25 L26.5703465,8.29245283 L21.229835,8.29245283 L21.229835,25 L26.5703465,25 Z M39.2926226,8.04447439 C36.8086638,8.0754717 34.8835957,9.06738544 33.7037153,11.0202156 L33.7037153,8.29245283 L28.3321544,8.29245283 L28.3321544,25 L33.7037153,25 L33.7037153,16.1657682 C33.9210617,14.1819407 35.1630411,12.787062 37.1191587,12.787062 C38.9200288,12.787062 40.0688598,13.9959569 40.0688598,15.9487871 L40.0688598,25 L45.4093712,25 L45.4093712,14.4609164 C45.4093712,10.5552561 42.9875113,8.04447439 39.2926226,8.04447439 L39.2926226,8.04447439 Z M54.0020658,18.5525606 L57.6348556,25 L64,25 L57.6659051,14.7088949 L63.8137031,8.29245283 L57.728004,8.29245283 L52.2011957,14.1509434 L52.2011957,2 L46.8296348,2 L46.8296348,25 L52.2011957,25 L52.2011957,20.4433962 L54.0020658,18.5525606 Z" id="Dink" fill="#0B141E"></path>
                        <path d="M24,0 C22.2527473,0 21,1.24590164 21,2.98360656 C21,4.75409836 22.2527473,6 24,6 C25.7472527,6 27,4.75409836 27,2.98360656 C27,1.24590164 25.7472527,0 24,0 L24,0 Z" id="Path" fill="#1366DA"></path>
                    </g>
                </g>
            </g>
        </g>
    </g>
</svg>