<?xml version="1.0" encoding="UTF-8"?>
<svg width="17px" height="15px" viewBox="0 0 17 15" version="1.1" xmlns="http://www.w3.org/2000/svg" xmlns:xlink="http://www.w3.org/1999/xlink">
    <!-- Generator: sketchtool 51.3 (57544) - http://www.bohemiancoding.com/sketch -->
    <title>69253631-68D6-424F-A05E-23A0FB9E2559</title>
    <desc>Created with sketchtool.</desc>
    <defs></defs>
    <g id="Page-1" stroke="none" stroke-width="1" fill="none" fill-rule="evenodd">
        <g id="DINK-kit-Main-1440" transform="translate(-1311.000000, -13.000000)" fill="#6D6D6A">
            <g id="Header" transform="translate(-55.000000, -82.000000)">
                <g id="Service-menu" transform="translate(55.000000, 82.000000)">
                    <g id="Cart" transform="translate(1260.000000, 0.000000)">
                        <path d="M67.9130189,17.975 L66.1830189,22.487 C65.9460189,23.106 65.2730189,23.554 64.5840189,23.554 L57.7120189,23.554 C56.9770189,23.554 56.3100189,23.035 56.1600189,22.347 L54.4870189,14.667 L51.7110189,14.667 L51.7110189,13 L54.6150189,13 C55.3500189,13 56.0170189,13.519 56.1670189,14.207 L56.6300189,16.333 L66.7150189,16.333 C67.1550189,16.333 67.5440189,16.519 67.7800189,16.843 C68.0160189,17.166 68.0650189,17.58 67.9130189,17.975 L67.9130189,17.975 Z M56.9930189,18 L57.8400189,21.888 L64.5840189,21.888 L66.0520189,18 L56.9930189,18 L56.9930189,18 Z M58.2930189,24.666 C59.2540189,24.666 60.0350189,25.414 60.0350189,26.333 C60.0350189,27.252 59.2540189,28 58.2930189,28 C57.3320189,28 56.5510189,27.252 56.5510189,26.333 C56.5510189,25.414 57.3320189,24.666 58.2930189,24.666 L58.2930189,24.666 Z M64.3920189,24.666 C65.3520189,24.666 66.1340189,25.414 66.1340189,26.333 C66.1340189,27.252 65.3520189,28 64.3920189,28 C63.4310189,28 62.6490189,27.252 62.6490189,26.333 C62.6490189,25.414 63.4310189,24.666 64.3920189,24.666 L64.3920189,24.666 Z" id="Fill-2"></path>
                    </g>
                </g>
            </g>
        </g>
    </g>
</svg>